<?xml version="1.0" standalone="no"?>
<!DOCTYPE svg PUBLIC "-//W3C//DTD SVG 20010904//EN"
 "http://www.w3.org/TR/2001/REC-SVG-20010904/DTD/svg10.dtd">
<svg version="1.0" xmlns="http://www.w3.org/2000/svg"
 width="886.000000pt" height="269.000000pt" viewBox="0 0 886.000000 269.000000"
 preserveAspectRatio="xMidYMid meet">

<g transform="translate(0.000000,269.000000) scale(0.100000,-0.100000)"
fill="#000000" stroke="none">
<path d="M3020 2013 c0 -82 -3 -273 -7 -425 l-5 -278 163 0 164 0 60 158 60
157 3 -157 3 -158 159 0 160 0 0 396 c-1 218 -4 409 -7 425 l-6 29 -155 -2
-155 -3 -61 -165 -61 -165 -3 168 -2 167 -155 0 -155 0 0 -147z"/>
<path d="M3830 1736 l0 -426 165 0 165 0 0 114 0 115 159 3 c143 3 163 5 188
24 57 41 63 70 63 282 0 171 -2 197 -20 231 -36 73 -52 76 -407 79 l-313 3 0
-425z m404 208 c11 -29 7 -189 -6 -202 -7 -7 -25 -12 -40 -12 l-28 0 0 115 0
115 34 0 c22 0 36 -6 40 -16z"/>
<path d="M4729 2151 c-50 -16 -71 -33 -90 -74 -17 -38 -19 -69 -19 -345 0
-278 2 -306 19 -340 11 -20 34 -46 53 -57 31 -19 51 -20 298 -20 392 0 372
-23 368 437 -3 294 -4 308 -24 335 -12 15 -36 37 -55 48 -31 18 -54 20 -279
22 -135 1 -257 -2 -271 -6z m289 -193 c17 -17 17 -429 0 -446 -17 -17 -55 -15
-62 4 -3 9 -6 109 -6 223 0 212 3 231 40 231 9 0 21 -5 28 -12z"/>
<path d="M5410 1735 l0 -425 165 0 165 0 0 185 0 185 45 0 45 0 0 -185 0 -185
165 0 165 0 0 425 0 425 -165 0 -165 0 0 -145 0 -145 -45 0 -45 0 0 145 0 145
-165 0 -165 0 0 -425z"/>
<path d="M334 1924 c-136 -213 -205 -514 -174 -766 22 -187 114 -453 156 -453
10 -1 25 -5 33 -9 10 -6 12 -4 7 10 -4 15 6 27 46 54 28 19 65 48 82 63 29 26
36 28 92 24 l62 -5 150 152 c140 141 154 158 200 251 44 88 58 107 119 156 37
31 96 80 131 109 l63 52 -20 -48 c-10 -27 -31 -78 -45 -113 -14 -35 -24 -66
-22 -68 1 -2 31 50 66 114 34 65 73 134 85 153 29 44 126 152 132 146 2 -2
-16 -69 -41 -148 -25 -80 -46 -151 -46 -159 0 -8 18 -59 40 -113 22 -55 40
-105 40 -112 0 -7 -73 -82 -162 -168 -89 -86 -159 -156 -155 -156 3 0 79 46
167 102 l161 101 85 -84 c90 -89 94 -98 115 -225 l13 -72 -84 -94 c-46 -51
-109 -119 -139 -150 -30 -32 -53 -60 -50 -62 2 -3 65 40 139 95 l135 100 55
-6 c30 -4 58 -10 62 -13 4 -4 -27 -54 -69 -110 -75 -103 -76 -104 -64 -142 6
-20 11 -42 11 -49 0 -6 -48 -61 -107 -122 l-108 -112 82 7 c237 19 490 126
692 292 224 185 363 416 427 709 26 118 24 360 -4 480 -42 185 -149 417 -200
436 -17 6 -21 5 -16 -3 5 -8 1 -9 -12 -4 -18 7 -54 8 -269 2 -49 -1 -105 1
-122 5 -18 4 -33 4 -33 0 0 -9 -63 -7 -79 3 -9 6 -12 5 -8 0 6 -10 -80 -11
-89 -1 -3 3 -18 1 -34 -3 -16 -4 -31 -6 -34 -3 -2 3 -31 4 -63 4 -129 -4 -151
-3 -162 3 -6 4 -11 1 -11 -6 0 -8 -3 -9 -8 -3 -8 12 -65 18 -58 6 3 -4 -1 -8
-9 -8 -8 0 -15 4 -15 9 0 5 -5 6 -10 3 -14 -9 -124 -10 -138 -1 -6 4 -20 2
-31 -4 -12 -6 -22 -6 -25 -1 -7 10 -25 9 -43 -2 -6 -4 -14 -3 -17 2 -5 8 -72
9 -101 1 -5 -1 -14 -1 -20 0 -5 1 -28 1 -50 0 -96 -6 -111 -6 -127 2 -9 4 -19
4 -22 -1 -6 -9 -54 -7 -63 3 -4 3 -12 1 -20 -5 -9 -8 -13 -8 -13 -1 0 6 -6 9
-13 7 -19 -8 -256 -11 -251 -4 2 3 -13 3 -34 0 -43 -8 -68 -7 -99 3 -19 6 -28
-1 -59 -50z"/>
<path d="M2990 955 l0 -95 85 0 85 0 0 -330 0 -330 165 0 165 0 2 328 3 327
83 3 82 3 0 94 0 95 -335 0 -335 0 0 -95z"/>
<path d="M3690 625 l0 -425 165 0 164 0 3 113 3 112 155 5 c172 6 200 14 236
74 16 27 19 56 22 207 4 191 -4 240 -43 287 -39 46 -83 52 -409 52 l-296 0 0
-425z m405 215 c3 -5 7 -49 7 -99 2 -100 -7 -121 -53 -121 l-29 0 0 115 0 115
34 0 c19 0 38 -4 41 -10z"/>
<path d="M4573 1038 c-72 -24 -102 -85 -103 -210 l0 -68 163 0 163 0 10 42
c19 87 74 73 74 -18 l0 -54 -60 0 -60 0 0 -85 0 -85 60 0 60 0 1 -47 c3 -78 0
-96 -15 -111 -33 -33 -66 14 -66 94 l0 44 -165 0 -165 0 0 -107 c0 -138 18
-184 82 -213 39 -18 67 -20 292 -20 229 0 253 2 291 20 78 38 80 44 83 393 3
293 2 311 -17 350 -38 79 -51 82 -341 84 -157 1 -267 -2 -287 -9z"/>
<path d="M5270 625 l0 -426 324 3 c312 3 326 4 353 24 56 42 68 77 68 206 0
131 -8 151 -78 197 l-37 24 37 21 c58 33 78 76 78 171 0 91 -21 145 -68 179
-27 20 -43 21 -353 24 l-324 3 0 -426z m398 223 c7 -7 12 -28 12 -48 0 -43
-15 -60 -52 -60 -28 0 -28 1 -28 60 0 59 0 60 28 60 15 0 33 -5 40 -12z m-7
-308 c15 -9 19 -22 19 -70 0 -63 -13 -80 -59 -80 -19 0 -21 6 -21 80 0 74 2
80 21 80 11 0 29 -5 40 -10z"/>
<path d="M6060 625 l0 -425 270 0 270 0 0 95 0 95 -99 0 c-106 0 -109 1 -106
55 1 17 3 51 3 78 l2 47 100 0 100 0 0 95 0 95 -100 0 -100 0 0 50 0 50 100 0
100 0 0 95 0 95 -270 0 -270 0 0 -425z"/>
<path d="M6710 748 c0 -167 -3 -313 -6 -325 -4 -16 -17 -24 -40 -29 l-34 -6 0
-95 0 -94 164 3 c157 3 166 4 190 27 38 36 46 98 46 376 l0 255 44 0 44 0 4
-57 c2 -32 3 -181 2 -330 l-1 -273 169 0 168 0 0 425 0 425 -375 0 -375 0 0
-302z"/>
<path d="M376 708 c3 -4 12 -8 20 -8 8 0 14 4 14 8 0 4 -9 8 -19 8 -11 0 -17
-4 -15 -8z"/>
<path d="M459 673 c-13 -16 -12 -17 4 -4 16 13 21 21 13 21 -2 0 -10 -8 -17
-17z"/>
<path d="M395 661 c-3 -5 -2 -12 3 -15 5 -3 9 1 9 9 0 17 -3 19 -12 6z"/>
<path d="M580 610 c0 -5 5 -10 11 -10 5 0 7 5 4 10 -3 6 -8 10 -11 10 -2 0 -4
-4 -4 -10z"/>
<path d="M448 593 c7 -3 16 -2 19 1 4 3 -2 6 -13 5 -11 0 -14 -3 -6 -6z"/>
<path d="M525 560 c-3 -6 1 -7 9 -4 18 7 21 14 7 14 -6 0 -13 -4 -16 -10z"/>
<path d="M670 556 c0 -2 7 -7 16 -10 8 -3 12 -2 9 4 -6 10 -25 14 -25 6z"/>
<path d="M593 517 c-1 -11 -1 -18 0 -16 2 2 8 11 15 20 9 12 9 16 -1 16 -7 0
-14 -9 -14 -20z"/>
<path d="M460 500 c-8 -5 -10 -10 -5 -10 6 0 17 5 25 10 8 5 11 10 5 10 -5 0
-17 -5 -25 -10z"/>
<path d="M870 270 c0 -5 5 -10 11 -10 5 0 7 5 4 10 -3 6 -8 10 -11 10 -2 0 -4
-4 -4 -10z"/>
<path d="M941 214 c0 -11 3 -14 6 -6 3 7 2 16 -1 19 -3 4 -6 -2 -5 -13z"/>
<path d="M967 149 c7 -7 15 -10 18 -7 3 3 -2 9 -12 12 -14 6 -15 5 -6 -5z"/>
<path d="M1050 146 c0 -2 7 -7 16 -10 8 -3 12 -2 9 4 -6 10 -25 14 -25 6z"/>
<path d="M1133 125 c0 -7 6 -11 14 -8 7 3 13 6 13 8 0 2 -6 5 -13 8 -8 3 -14
-1 -14 -8z"/>
</g>
</svg>
